<svg width="903" height="130" viewBox="0 0 903 130" fill="none" xmlns="http://www.w3.org/2000/svg">
<path d="M234.29 110.23H137.734V129.327H234.29V110.23Z" fill="white"/>
<path d="M485.185 110.23H388.629V129.327H485.185V110.23Z" fill="white"/>
<path d="M729.982 129.244L685.942 72.3101L642.269 129.244H628.891L678.705 64.2242L630.395 0.666748H643.773L686.52 56.3107L728.328 0.666748H741.34L693.756 64.3966L743.379 129.226H730L729.982 129.25V129.244Z" fill="#F0BA1C"/>
<path d="M766.203 129.25V0.69043H777.176L833.668 80.3959H834.029L892.001 0.69043H902.588V129.25H890.888V20.5068L837.746 93.9754H829.95L777.729 21.25V129.244H766.203V129.25Z" fill="#F0BA1C"/>
<path d="M123.266 129.25H103.944C103.944 113.714 70.618 84.2842 46.9587 68.3443L21.0678 50.9002H90.3791C106.934 50.9002 108.287 43.4327 108.287 34.3895C108.287 28.9554 104.51 19.7874 90.3791 19.7874H19.5759V129.25H0.253906V0.69043H90.3671C114.802 0.69043 127.597 17.647 127.597 34.3895C127.597 65.3716 104.281 69.9972 90.3671 69.9972H81.1151C100.245 85.8063 123.266 109.047 123.266 129.25Z" fill="white"/>
<path d="M334.26 129.333H249.23V0.666748H339.344C363.779 0.666748 376.574 17.6233 376.574 34.3659C376.574 47.6957 372.261 56.1621 366.227 61.4417C374.3 69.5038 376.574 80.8835 376.574 91.1514C376.574 110.123 362.034 129.31 334.254 129.31V129.333H334.26ZM268.558 110.236H334.26C352.403 110.236 357.258 98.2444 357.258 91.1811C357.258 75.3482 350.623 70.8118 338.923 70.0032H277.022V50.9063H278.785V50.7576H334.266C335.939 50.7576 337.527 50.7992 339.073 50.9063H339.35C355.904 50.9063 357.258 43.4387 357.258 34.3956C357.258 28.9614 353.48 19.7934 339.35 19.7934H268.558V110.26V110.236Z" fill="white"/>
<path d="M234.29 0.666748H137.734V19.7637H234.29V0.666748Z" fill="white"/>
<path d="M210.138 50.7516H137.734V69.8485H210.138V50.7516Z" fill="white"/>
<path d="M485.185 0.666748H388.629V19.7637H485.185V0.666748Z" fill="white"/>
<path d="M461.032 50.7516H388.629V69.8485H461.032V50.7516Z" fill="white"/>
<path d="M609.551 129.333H503.328V0.666748H522.656V110.231H609.551V129.327V129.333Z" fill="white"/>
</svg>
